<svg width="217" height="53" viewBox="0 0 217 53" fill="none" xmlns="http://www.w3.org/2000/svg">
<path fill-rule="evenodd" clip-rule="evenodd" d="M201.68 0H206.14V4.45H201.68V0ZM212.64 50.75C212.64 47.6967 212.613 44.6467 212.56 41.6H208.21V37.08H203.75V41.36H199.28V37.06L194.88 36.83V32.42H203.64V27.74H199.29V23.22L194.88 22.97V18.61H199.15V14.01L203.56 13.76V9.38H199.22V0.0299982H141.69V0.0800012H26.51V4.46001H22.15V0.0299982H17.76V4.55H13.22V9.05H8.84V13.61H17.57V9.3H22.04V18.3H17.6V22.92H8.89V27.61H17.6V32.13H22V36.61H26.47V32.35H30.89V41.35H22.22C22.14 43.02 22.07 44.42 21.99 45.99H17.75V50.73H13.22V52.82H199.22V50.82H203.61V52.82H208.14V50.82H212.52V52.82H216.98V50.82L212.64 50.75ZM30.84 50.53H26.69V46.19H30.84V50.53ZM30.84 22.85H26.66V27.53H17.66V22.98H22.12V18.36H30.84V22.85ZM35.29 13.56H31.07V9.2H26.57V4.50999H35.29V13.56ZM194.62 13.73H190.47V9.39H194.62V13.73ZM199.18 50.73H194.94V46.31H199.19L199.18 50.73ZM214.93 4.78003H210.77V13.75H214.93V4.78003ZM210.63 37.1201H214.9V41.5201H210.63V37.1201ZM13.15 50.61H8.89V46.19H13.15V50.61ZM201.71 27.6101V18.6101L206.02 18.5801C206.085 19.698 206.143 20.8488 206.205 22.0803L206.206 22.0846L206.206 22.0865L206.25 22.9601H210.42V27.6101H201.71ZM4.07 27.62H0V32.02H4.07V27.62ZM13.31 37.01H17.55V41.26H13.31V37.01ZM8.89 0.0299982V4.45H13.15V4.52H13.22V4.45H13.15V0.0299982H8.89Z" fill="#4300FF"/>
</svg>
