<svg width="21" height="21" viewBox="0 0 21 21" fill="none" xmlns="http://www.w3.org/2000/svg">
<path fill-rule="evenodd" clip-rule="evenodd" d="M10.4167 0C4.66667 0 0 4.66667 0 10.4167C0 16.1667 4.66667 20.8333 10.4167 20.8333C16.1667 20.8333 20.8333 16.1667 20.8333 10.4167C20.8333 4.66667 16.1667 0 10.4167 0ZM10.4167 5.20833C9.84375 5.20833 9.375 5.67708 9.375 6.25V9.375H6.25C5.67708 9.375 5.20833 9.84375 5.20833 10.4167C5.20833 10.9896 5.67708 11.4583 6.25 11.4583H9.375V14.5833C9.375 15.1562 9.84375 15.625 10.4167 15.625C10.9896 15.625 11.4583 15.1562 11.4583 14.5833V11.4583H14.5833C15.1562 11.4583 15.625 10.9896 15.625 10.4167C15.625 9.84375 15.1562 9.375 14.5833 9.375H11.4583V6.25C11.4583 5.67708 10.9896 5.20833 10.4167 5.20833ZM2.08333 10.4167C2.08333 15.0104 5.82292 18.75 10.4167 18.75C15.0104 18.75 18.75 15.0104 18.75 10.4167C18.75 5.82292 15.0104 2.08333 10.4167 2.08333C5.82292 2.08333 2.08333 5.82292 2.08333 10.4167Z" fill="#C49F13"/>
</svg>
