<svg width="124" height="124" viewBox="0 0 124 124" fill="none" xmlns="http://www.w3.org/2000/svg">
<circle cx="62" cy="62" r="61.5" fill="#1C1C1C" stroke="#919191"/>
<g clip-path="url(#clip0_104_307)">
<path d="M67.9396 42.375L44.8179 45.4611L67.9396 48.5342L91.0744 51.6073V45.4611V39.3019L67.9396 42.375Z" fill="#4300FF"/>
<path d="M44.8179 84.8539L67.9396 87.927L91.0744 91.0001V84.8539V78.7076L67.9396 81.7807L44.8179 84.8539Z" fill="#4300FF"/>
<path d="M81.0719 73.1708V65.4686V57.7534L52.1078 61.6175L23.1567 65.4686L52.1078 69.3067L81.0719 73.1708Z" fill="#4300FF"/>
<g opacity="0.8">
<path opacity="0.8" d="M68.8654 36.0731L45.7437 39.1462L68.8654 42.2323L92.0001 45.3054V39.1462V33L68.8654 36.0731Z" fill="#49C4C1"/>
<path opacity="0.8" d="M45.7437 78.552L68.8654 81.6251L92.0001 84.6982V78.552V72.4058L68.8654 75.4789L45.7437 78.552Z" fill="#49C4C1"/>
<path opacity="0.8" d="M81.9977 66.856V59.1538V51.4515L53.0466 55.3026L24.0825 59.1538L53.0466 63.0049L81.9977 66.856Z" fill="#49C4C1"/>
</g>
<path d="M67.7959 37.8625L44.6611 40.9356L67.7959 44.0087L90.9176 47.0818V40.9356V34.7894L67.7959 37.8625Z" fill="white"/>
<path d="M44.6611 80.3414L67.7959 83.4145L90.9176 86.4876V80.3414V74.1823L67.7959 77.2554L44.6611 80.3414Z" fill="white"/>
<path d="M80.9151 68.6454V60.9432V53.241L51.9641 57.0921L23 60.9432L51.9641 64.7943L80.9151 68.6454Z" fill="white"/>
</g>
<defs>
<clipPath id="clip0_104_307">
<rect width="69" height="58" fill="white" transform="translate(23 33)"/>
</clipPath>
</defs>
</svg>
