<svg width="303" height="79" viewBox="0 0 303 79" fill="none" xmlns="http://www.w3.org/2000/svg">
<path d="M49.3375 41.1651V52.7078C49.3473 52.9197 49.3128 53.1312 49.2363 53.3289C49.1597 53.5267 49.0428 53.7062 48.8929 53.8562C48.743 54.0061 48.5635 54.1231 48.3659 54.1997C48.1683 54.2763 47.9568 54.3107 47.7451 54.3009H20.0844C17.6027 54.3009 15.8799 53.8261 14.8172 52.8496C13.7431 51.8633 13.199 50.5227 13.199 48.8655C13.1953 48.0534 13.3873 47.2524 13.759 46.5305C14.1293 45.8267 14.6066 45.1847 15.1738 44.6275L26.2599 33.5834H4.20039C3.97387 35.2895 3.86014 37.0087 3.85992 38.7298C3.85992 60.1421 21.2085 77.5 42.6092 77.5C47.8037 77.5062 52.9462 76.4642 57.729 74.4363C62.5119 72.4084 66.8368 69.4362 70.4453 65.6976L49.3533 41.1866L49.3375 41.1651Z" fill="url(#paint0_linear_815_2087)"/>
<path d="M37.4069 26.5914C38.3675 27.5754 38.8544 29.0245 38.8544 30.8993C38.8698 31.6731 38.7381 32.4429 38.4662 33.1675C38.2132 33.8079 37.8322 34.3899 37.3464 34.8777L26.412 45.8183H40.8596V0C25.0138 0.705095 11.6443 10.9311 6.32526 25.1001H32.4362C34.7998 25.1001 36.4257 25.5879 37.4069 26.5914Z" fill="url(#paint1_linear_815_2087)"/>
<path d="M49.3986 35.4723L49.4633 35.3915L62.389 24.433C62.5934 24.1964 62.8475 24.0078 63.1332 23.8808C63.4189 23.7537 63.7291 23.6913 64.0416 23.698H70.7881C71.5912 23.698 72.0415 24.224 72.1313 24.7452C72.1848 25.0738 72.1434 25.5575 71.6508 26.0503L71.599 26.0987L57.6181 38.3508L75.4959 59.24C79.3383 53.0903 81.3707 45.9816 81.3599 38.7292C81.3599 19.613 67.5318 3.7295 49.3381 0.542694V35.5541C49.3579 35.5278 49.3771 35.4989 49.3986 35.4723Z" fill="url(#paint2_linear_815_2087)"/>
<path d="M96.0582 61.4969C93.3291 61.4969 91.4348 61.0108 90.3753 60.0387C89.838 59.5276 89.4177 58.9065 89.143 58.2183C88.8684 57.53 88.7458 56.7907 88.7839 56.0507C88.7792 55.2502 88.9682 54.4605 89.3347 53.7485C89.7345 52.9929 90.2496 52.304 90.8618 51.7066L105.865 36.7869C105.946 36.7122 106.01 36.6219 106.055 36.5216C106.099 36.4213 106.123 36.3129 106.124 36.2032C106.124 35.8144 105.755 35.6207 105.021 35.6207H90.2128C90.1237 35.6344 90.0326 35.6269 89.9469 35.5989C89.8613 35.5709 89.7834 35.5232 89.7197 35.4596C89.6559 35.3959 89.6081 35.3182 89.58 35.2326C89.552 35.1471 89.5445 35.0562 89.5583 34.9673V28.3535C89.5455 28.265 89.5536 28.1747 89.5821 28.0899C89.6106 28.0051 89.6586 27.9281 89.7222 27.8651C89.7858 27.8021 89.8633 27.755 89.9485 27.7273C90.0337 27.6996 90.1242 27.6921 90.2128 27.7056H111.515C114.069 27.7056 115.823 28.1917 116.775 29.1638C117.819 30.3989 118.332 31.9953 118.203 33.606C118.223 34.4015 118.091 35.1934 117.815 35.9397C117.566 36.5715 117.19 37.1453 116.71 37.6255L102.093 52.2184C101.837 52.4287 101.673 52.7316 101.639 53.0614C101.639 53.4077 101.875 53.5797 102.352 53.5797H130.821C130.91 53.5662 131.001 53.5738 131.087 53.6019C131.172 53.63 131.25 53.6777 131.314 53.7413C131.378 53.8049 131.425 53.8826 131.453 53.968C131.482 54.0534 131.489 54.1442 131.476 54.2331V60.8467C131.489 60.9352 131.48 61.0255 131.452 61.1103C131.423 61.1951 131.375 61.2721 131.312 61.3351C131.248 61.3981 131.171 61.4454 131.086 61.4731C131 61.5008 130.91 61.5081 130.821 61.4946L96.0582 61.4969Z" fill="#000"/>
<path d="M124.699 15.0065H131.323C131.412 14.9933 131.502 15.0008 131.587 15.0286C131.672 15.0564 131.75 15.1037 131.813 15.1666C131.877 15.2295 131.925 15.3064 131.953 15.3911C131.982 15.4758 131.99 15.566 131.978 15.6545V60.8489C131.99 60.9374 131.982 61.0275 131.953 61.1122C131.925 61.1969 131.877 61.2738 131.813 61.3368C131.75 61.3997 131.672 61.447 131.587 61.4748C131.502 61.5025 131.412 61.5101 131.323 61.4968H124.699C124.61 61.5103 124.52 61.5029 124.435 61.4752C124.349 61.4474 124.272 61.4003 124.208 61.3373C124.145 61.2743 124.097 61.1973 124.068 61.1125C124.04 61.0277 124.032 60.9374 124.044 60.8489V15.6545C124.032 15.566 124.04 15.4758 124.069 15.3911C124.097 15.3064 124.145 15.2295 124.209 15.1666C124.272 15.1037 124.35 15.0564 124.435 15.0286C124.52 15.0008 124.61 14.9933 124.699 15.0065ZM144.641 28.2337C144.788 28.0604 144.972 27.9234 145.18 27.8334C145.388 27.7435 145.615 27.703 145.841 27.7154H155.03C155.265 27.7154 155.393 27.7796 155.418 27.9103C155.443 28.041 155.357 28.1913 155.171 28.3633L141.953 42.1743C141.858 42.2625 141.753 42.3693 141.635 42.501C141.539 42.5857 141.477 42.7013 141.457 42.8277C141.481 42.9712 141.542 43.1059 141.635 43.2176C141.726 43.3587 141.832 43.4892 141.953 43.6064L155.947 61.0492C156.183 61.352 156.112 61.503 155.736 61.5023H146.618C146.387 61.503 146.158 61.4507 145.95 61.3495C145.742 61.2483 145.56 61.1009 145.418 60.9185L133.118 45.6167C132.779 45.2128 132.494 44.7657 132.272 44.2871C132.045 43.8336 131.924 43.3346 131.917 42.8277C131.943 42.3859 132.064 41.955 132.272 41.5645C132.511 41.059 132.821 40.5894 133.19 40.1695L144.641 28.2337Z" fill="#000"/>
<path d="M187.137 53.7168V60.8489C187.15 60.9374 187.141 61.0275 187.113 61.1123C187.084 61.197 187.036 61.2738 186.973 61.3368C186.909 61.3997 186.832 61.447 186.747 61.4748C186.661 61.5026 186.571 61.5101 186.483 61.4968H167.652C167.391 61.5008 167.131 61.4792 166.874 61.4325C163.279 61.1312 160.725 60.0829 159.21 58.2875C157.695 56.492 156.937 53.7796 156.937 50.1503V15.6545C156.924 15.566 156.932 15.4758 156.961 15.3911C156.99 15.3064 157.038 15.2295 157.101 15.1666C157.165 15.1037 157.242 15.0564 157.327 15.0286C157.412 15.0008 157.503 14.9933 157.591 15.0066H165.71C165.798 14.9931 165.889 15.0005 165.974 15.0282C166.059 15.0559 166.137 15.1031 166.2 15.1661C166.264 15.2291 166.312 15.3061 166.34 15.3909C166.369 15.4757 166.377 15.566 166.364 15.6545V50.9278C166.364 52.3544 167.209 53.0678 168.897 53.0678H186.49C186.578 53.0558 186.668 53.0644 186.752 53.0928C186.836 53.1213 186.913 53.1687 186.975 53.2316C187.038 53.2945 187.085 53.3712 187.113 53.4553C187.141 53.5395 187.149 53.629 187.137 53.7168Z" fill="#000"/>
<path d="M197.268 49.0482C197.263 49.6803 197.444 50.3 197.787 50.8309C198.154 51.3933 198.629 51.8781 199.184 52.2576C199.829 52.6965 200.542 53.0251 201.295 53.23C202.14 53.4705 203.014 53.5905 203.892 53.5862H221.972C222.061 53.5736 222.151 53.582 222.236 53.6105C222.321 53.639 222.398 53.6869 222.461 53.7503C222.524 53.8138 222.571 53.8911 222.599 53.9761C222.627 54.061 222.634 54.1512 222.621 54.2395V60.8532C222.634 60.9412 222.625 61.031 222.597 61.1153C222.569 61.1997 222.522 61.2763 222.459 61.3392C222.396 61.402 222.319 61.4493 222.235 61.4774C222.15 61.5056 222.06 61.5138 221.972 61.5012H208.373C205.306 61.5613 202.243 61.2568 199.248 60.5941C197.073 60.124 195.045 59.1336 193.338 57.7081C191.827 56.3636 190.725 54.6227 190.156 52.6834C189.481 50.301 189.164 47.8318 189.214 45.3564C189.114 42.4112 189.657 39.4796 190.806 36.7651C191.741 34.6564 193.166 32.8004 194.962 31.3506C196.668 30.0132 198.638 29.052 200.743 28.5301C202.855 27.9937 205.025 27.7215 207.204 27.7198C209.556 27.6731 211.9 27.9901 214.154 28.6595C215.929 29.1905 217.568 30.0973 218.96 31.3179C220.213 32.4619 221.161 33.8989 221.72 35.4997C222.325 37.2739 222.62 39.1385 222.593 41.0123V47.7555C222.606 47.844 222.599 47.9344 222.571 48.0194C222.543 48.1045 222.496 48.1819 222.433 48.2454C222.37 48.3089 222.293 48.3567 222.208 48.3851C222.123 48.4135 222.032 48.4217 221.944 48.4089H197.918C197.831 48.3967 197.742 48.4048 197.658 48.4325C197.574 48.4601 197.498 48.5066 197.435 48.5684C197.372 48.6303 197.325 48.7057 197.296 48.7889C197.267 48.8721 197.257 48.9608 197.268 49.0482ZM214.611 40.813C214.7 40.8256 214.79 40.8173 214.875 40.7888C214.96 40.7603 215.037 40.7125 215.1 40.649C215.163 40.5855 215.21 40.5081 215.238 40.4231C215.265 40.3382 215.273 40.248 215.259 40.1596C215.265 39.3632 215.058 38.5798 214.658 37.8904C214.259 37.2011 213.682 36.631 212.987 36.2392C211.047 35.1621 208.84 34.6565 206.623 34.781C205.647 34.7947 204.676 34.9251 203.732 35.1697C202.681 35.4246 201.658 35.7829 200.678 36.2392C199.769 36.6474 198.943 37.2188 198.241 37.925C197.938 38.2148 197.697 38.5618 197.53 38.9458C197.363 39.3298 197.274 39.7432 197.268 40.1618C197.254 40.2507 197.262 40.3417 197.29 40.4273C197.318 40.5128 197.366 40.5905 197.429 40.6542C197.493 40.7178 197.571 40.7655 197.657 40.7935C197.742 40.8215 197.833 40.829 197.923 40.8153L214.611 40.813Z" fill="#000"/>
<path d="M235.974 59.4222C235.974 60.806 235.368 61.4975 234.156 61.4968H229.804C229.53 61.5104 229.259 61.4442 229.022 61.3061C228.786 61.168 228.595 60.964 228.473 60.7193C228.181 60.1594 228.036 59.5349 228.051 58.9039V31.9953C228.06 31.4388 228.183 30.8899 228.412 30.3825C228.641 29.8751 228.971 29.4196 229.383 29.044C229.83 28.6022 230.363 28.2564 230.95 28.0279C231.536 27.7994 232.162 27.6931 232.791 27.7154H247.47C248.972 27.7035 250.458 28.0245 251.821 28.6553C253.142 29.268 254.341 30.1135 255.361 31.1513C256.37 32.1794 257.175 33.3897 257.732 34.7178C258.288 36.0311 258.575 37.4422 258.576 38.868V60.8489C258.576 61.2845 258.336 61.4968 257.861 61.4968H251.302C251.213 61.5103 251.123 61.5029 251.038 61.4752C250.952 61.4474 250.875 61.4003 250.811 61.3373C250.748 61.2743 250.7 61.1973 250.671 61.1125C250.643 61.0277 250.635 60.9374 250.647 60.8489V40.2293C250.68 39.3184 250.514 38.4113 250.16 37.5711C249.866 36.9143 249.393 36.3527 248.796 35.9495C248.175 35.5464 247.48 35.271 246.751 35.1393C245.916 34.9832 245.068 34.907 244.218 34.9117H237.918C237.426 34.9181 236.953 35.1026 236.587 35.4311C236.408 35.5568 236.26 35.7213 236.153 35.912C236.046 36.1028 235.983 36.3151 235.97 36.5332L235.974 59.4222Z" fill="#000"/>
<path d="M287.347 27.0664V15.6545C287.334 15.5665 287.342 15.4768 287.37 15.3924C287.398 15.3081 287.446 15.2314 287.509 15.1685C287.572 15.1057 287.649 15.0583 287.733 15.0302C287.818 15.0021 287.907 14.994 287.996 15.0066H294.62C294.708 14.9931 294.799 15.0005 294.884 15.0282C294.969 15.0559 295.047 15.1031 295.111 15.1661C295.174 15.2291 295.222 15.3061 295.25 15.3909C295.279 15.4757 295.287 15.566 295.274 15.6545V60.8489C295.287 60.9374 295.279 61.0277 295.25 61.1125C295.222 61.1973 295.174 61.2743 295.111 61.3373C295.047 61.4003 294.969 61.4475 294.884 61.4752C294.799 61.5029 294.708 61.5103 294.62 61.4968H274.423C272.523 61.5517 270.656 60.995 269.097 59.909C267.609 58.8329 266.369 57.4511 265.46 55.8567C264.493 54.1769 263.781 52.3627 263.348 50.4737C262.905 48.6256 262.677 46.7329 262.667 44.8326C262.647 42.4811 262.875 40.1339 263.348 37.8302C263.723 35.9144 264.439 34.0811 265.46 32.4167C266.361 30.9732 267.612 29.7798 269.097 28.9471C270.736 28.0856 272.571 27.6614 274.423 27.7154H286.697C286.785 27.728 286.875 27.7198 286.959 27.6916C287.044 27.6634 287.121 27.6161 287.184 27.5531C287.247 27.4901 287.295 27.4133 287.323 27.3288C287.351 27.2444 287.359 27.1546 287.347 27.0664ZM287.347 36.274C287.359 36.1855 287.351 36.0952 287.323 36.0104C287.294 35.9256 287.246 35.8486 287.183 35.7856C287.119 35.7226 287.042 35.6753 286.956 35.6476C286.871 35.6199 286.781 35.6126 286.692 35.6261H279.614C278.382 35.6151 277.152 35.7344 275.945 35.9821C274.894 36.1938 273.912 36.6619 273.086 37.3446C272.225 38.101 271.585 39.0749 271.231 40.164C270.755 41.673 270.536 43.2512 270.584 44.8326C270.536 46.3082 270.755 47.7801 271.231 49.1778C271.598 50.2055 272.225 51.1212 273.05 51.8362C273.872 52.5049 274.84 52.9712 275.876 53.1974C277.102 53.4697 278.355 53.6 279.611 53.5862H286.689C286.777 53.5997 286.868 53.5923 286.953 53.5646C287.038 53.5369 287.116 53.4896 287.179 53.4266C287.243 53.3636 287.291 53.2867 287.319 53.2018C287.348 53.117 287.356 53.0268 287.343 52.9382L287.347 36.274Z" fill="#000"/>
<defs>
<linearGradient id="paint0_linear_815_2087" x1="37.1526" y1="75.1285" x2="37.1526" y2="1.21681" gradientUnits="userSpaceOnUse">
<stop stop-color="#5284D6"/>
<stop offset="1" stop-color="#1B2393"/>
</linearGradient>
<linearGradient id="paint1_linear_815_2087" x1="23.5924" y1="75.142" x2="23.5924" y2="1.19127" gradientUnits="userSpaceOnUse">
<stop stop-color="#5284D6"/>
<stop offset="1" stop-color="#1B2393"/>
</linearGradient>
<linearGradient id="paint2_linear_815_2087" x1="65.349" y1="75.147" x2="65.349" y2="1.18837" gradientUnits="userSpaceOnUse">
<stop stop-color="#5284D6"/>
<stop offset="1" stop-color="#1B2393"/>
</linearGradient>
</defs>
</svg>
